# xmcd CD database file generated by Grip 3.2.0
# 
# Track frame offsets:
#       150
#       15430
#       131030
#       169130
#       254405
#       287080
# 
# Disc length: 4013 seconds
# 
# Revision: 2
# Processed by: cddbd v1.5.2PL0 Copyright (c) Steve Scherf et al.
# Submitted via: Grip 3.2.0
# 
DISCID=4f0fab06
DTITLE=Stevie Ray Vaughan and Buddy Guy - See You Later
DYEAR=1989
DGENRE=Blues
TTITLE0=Still Called the Blues
TTITLE1=Louisiana Blues/Don't Throw Your Love On Me
TTITLE2=Mary Had a Little Lamb
TTITLE3=Leave My Girl Alone
TTITLE4=Stormy Monday Blues
TTITLE5=Mary Had a Little Lamb
EXTD=
EXTT0=
EXTT1=So Strong
EXTT2=
EXTT3=
EXTT4=
EXTT5=
PLAYORDER=
